<svg xmlns="http://www.w3.org/2000/svg" width="309.04" height="512" viewBox="0 0 309.04 512">
	<style type="text/css">
		.st0{fill:#e62338;}
	</style>
	<path class="st0" d="M255.82,512C245.93,512 236.66,508.16 229.71,501.2L10.77,282.27C3.8,275.3 -0.02,265.99 0,256.06C-0.02,246.2 3.8,236.9 10.77,229.93L229.92,10.79C236.87,3.83 246.14,0 256.02,0C265.91,0 275.18,3.83 282.13,10.8L298.25,26.91C305.2,33.85 309.03,43.13 309.03,53.01C309.03,62.9 305.2,72.17 298.24,79.11L121.26,256.1L298.05,432.88C305.01,439.84 308.84,449.11 308.84,458.98C308.84,468.85 305.01,478.12 298.05,485.08L281.92,501.2C274.97,508.16 265.7,512 255.82,512"/>
</svg>